<svg width="19" height="16" viewBox="0 0 19 16" fill="none" xmlns="http://www.w3.org/2000/svg">
<g clip-path="url(#clip0_1176_8216)">
<path d="M18.0044 8.59458C17.863 8.59458 17.7337 8.64474 17.6377 8.7269C17.5417 8.80916 17.4789 8.92352 17.4701 9.05212L17.4695 9.06142C17.3062 8.88788 17.1074 8.75296 16.8731 8.65646C16.6388 8.56015 16.3659 8.51195 16.0545 8.51195C15.743 8.51195 15.4877 8.56639 15.2519 8.67507C15.0161 8.78394 14.8347 8.95814 14.7077 9.19765C14.5443 8.98838 14.3381 8.82172 14.0886 8.69787C13.8391 8.57393 13.5438 8.51195 13.2021 8.51195C12.9481 8.51195 12.7214 8.54303 12.5218 8.60491C12.4003 8.6426 12.2904 8.69378 12.1918 8.75808C12.0928 8.63999 11.9849 8.52749 11.8683 8.42123C11.5309 8.11397 11.138 7.87269 10.7004 7.70408C10.247 7.52942 9.76572 7.44093 9.26984 7.44093C8.77396 7.44093 8.29269 7.52942 7.8393 7.70408C7.40165 7.87269 7.00875 8.11397 6.67142 8.42123C6.55475 8.52749 6.44687 8.63999 6.34788 8.75808C6.24929 8.69378 6.13937 8.6426 6.0179 8.60491C5.81839 8.54303 5.59159 8.51195 5.33773 8.51195C4.9959 8.51195 4.70056 8.57393 4.45108 8.69787C4.20161 8.82172 3.99535 8.98838 3.832 9.19765C3.70501 8.95814 3.52358 8.78394 3.2878 8.67507C3.05201 8.56639 2.78446 8.51195 2.48523 8.51195C2.18601 8.51195 1.90088 8.56015 1.66663 8.65646C1.43227 8.75296 1.23347 8.88788 1.07022 9.06142L1.06961 9.05212C1.05214 8.79502 0.818092 8.59458 0.535315 8.59458C0.387491 8.59458 0.253662 8.64921 0.156815 8.73742C0.0598654 8.82563 0 8.94753 0 9.08217V13.0639H1.10199V9.82556C1.18658 9.67407 1.30529 9.55432 1.45802 9.4662C1.61054 9.37808 1.80495 9.33397 2.04074 9.33397C2.17681 9.33397 2.2992 9.34849 2.4081 9.37733C2.5169 9.40627 2.60987 9.45373 2.68689 9.51989C2.76402 9.58595 2.82297 9.67268 2.86383 9.78015C2.9046 9.88744 2.92503 10.0197 2.92503 10.1766V12.5621C2.92503 12.8393 3.17174 13.0639 3.47597 13.0639C3.62809 13.0639 3.7659 13.0077 3.86561 12.917C3.96532 12.8262 4.02702 12.7007 4.02702 12.5621V10.0857C4.02702 10.0721 4.02631 10.0575 4.02477 10.0424C4.02324 10.0272 4.02253 10.0128 4.02253 9.99892C4.08597 9.80072 4.19701 9.6403 4.35587 9.51775C4.51453 9.39529 4.71925 9.33397 4.97026 9.33397C5.10633 9.33397 5.22801 9.34635 5.33538 9.37119C5.44264 9.39594 5.53489 9.44005 5.61202 9.50332C5.68405 9.56251 5.73993 9.64048 5.78028 9.73679C5.65748 10.0746 5.59517 10.427 5.59517 10.788C5.59517 11.2396 5.69242 11.678 5.88418 12.091C6.06929 12.4895 6.33419 12.8475 6.67142 13.1547C7.00875 13.4619 7.40165 13.7032 7.8393 13.8718C7.93053 13.907 8.02299 13.9386 8.11636 13.9667C8.26296 14.011 8.41201 14.0466 8.56331 14.0733C8.79439 14.1144 9.03038 14.1351 9.26984 14.1351C9.5093 14.1351 9.73957 14.1149 9.968 14.0748C10.1258 14.0472 10.2813 14.0101 10.434 13.9635C10.5238 13.9362 10.6126 13.9056 10.7004 13.8718C11.138 13.7032 11.5309 13.4619 11.8683 13.1547C12.2056 12.8475 12.4704 12.4895 12.6555 12.091C12.8473 11.678 12.9445 11.2396 12.9445 10.788C12.9445 10.427 12.8822 10.0746 12.7594 9.73679C12.7998 9.64048 12.8556 9.56251 12.9277 9.50332C13.0048 9.44005 13.097 9.39594 13.2043 9.37119C13.3118 9.34635 13.4333 9.33397 13.5694 9.33397C13.8204 9.33397 14.0252 9.39529 14.1838 9.51775C14.3427 9.6403 14.4537 9.80072 14.5172 9.99892C14.5172 10.0128 14.5164 10.0272 14.5149 10.0424C14.5134 10.0575 14.5127 10.0721 14.5127 10.0857V12.5621C14.5127 12.8393 14.7594 13.0639 15.0637 13.0639C15.2158 13.0639 15.3535 13.0077 15.4532 12.917C15.553 12.8262 15.6147 12.7007 15.6147 12.5621V10.1766C15.6147 10.0197 15.6351 9.88744 15.6758 9.78015C15.7167 9.67268 15.7757 9.58595 15.8528 9.51989C15.9298 9.45373 16.0228 9.40627 16.1316 9.37733C16.2405 9.34849 16.3629 9.33397 16.4989 9.33397C16.7347 9.33397 16.9291 9.37808 17.0817 9.4662C17.2344 9.55432 17.3531 9.67407 17.4377 9.82556V13.0639H18.5397V9.08217C18.5397 8.81288 18.3 8.59458 18.0044 8.59458ZM10.4076 12.9292C10.2765 12.9873 10.1393 13.0356 9.99722 13.0731C9.76623 13.1343 9.52217 13.167 9.26984 13.167C9.01751 13.167 8.76722 13.1334 8.53368 13.0707C8.39863 13.0346 8.26796 12.9888 8.14292 12.934C7.26527 12.5501 6.65793 11.7324 6.65793 10.788C6.65793 9.47615 7.8296 8.40895 9.26984 8.40895C10.7101 8.40895 11.8818 9.47615 11.8818 10.788C11.8818 11.7286 11.2794 12.5434 10.4076 12.9292Z" fill="#AA5403"/>
<path d="M9.26979 12.9141C10.559 12.9141 11.604 11.9622 11.604 10.788C11.604 9.61374 10.559 8.66184 9.26979 8.66184C7.98062 8.66184 6.93555 9.61374 6.93555 10.788C6.93555 11.9622 7.98062 12.9141 9.26979 12.9141Z" fill="#AA5403"/>
<path d="M10.4073 12.0653C10.406 12.1784 10.4044 12.3839 10.4055 12.646C10.4059 12.7344 10.4067 12.8293 10.4077 12.9292C10.4113 13.2393 10.4189 13.5979 10.4341 13.9635C10.2814 14.0101 10.1259 14.0472 9.96809 14.0748C9.98403 13.7264 9.99281 13.3807 9.99731 13.0731C9.99874 12.9809 9.99966 12.8922 10.0004 12.8079C10.0033 12.4591 10.0012 12.1853 9.99966 12.0539C9.65651 11.9152 9.40479 11.4585 9.40479 10.9166C9.40479 10.2646 9.76919 9.73595 10.2186 9.73595C10.668 9.73595 11.0325 10.2646 11.0325 10.9166C11.0325 11.4744 10.7659 11.9418 10.4073 12.0653Z" fill="white"/>
<path d="M8.53115 12.1557C8.52983 12.2879 8.5284 12.5188 8.53075 12.8053C8.53126 12.8893 8.53228 12.9781 8.53361 13.0707C8.538 13.3772 8.54678 13.7245 8.56323 14.0733C8.41193 14.0466 8.26288 14.011 8.11628 13.9667C8.13202 13.6013 8.13958 13.2419 8.14285 12.934C8.14397 12.8338 8.14458 12.7391 8.14489 12.6514C8.14581 12.4348 8.14469 12.261 8.14356 12.1535C7.85149 12.0663 7.6488 11.8046 7.67751 11.5092L7.91289 9.7648C7.91503 9.74833 7.93046 9.73595 7.94854 9.73595H7.95038V11.464C7.95038 11.4974 7.9797 11.5246 8.01627 11.5252C8.05397 11.5259 8.08482 11.497 8.08482 11.4626L8.16583 9.75801C8.16645 9.74572 8.17758 9.73595 8.19117 9.73595C8.20475 9.73595 8.21589 9.74582 8.2164 9.75819L8.28505 11.464C8.28505 11.4979 8.31509 11.5252 8.35217 11.5252C8.38925 11.5252 8.41939 11.4979 8.41939 11.464L8.49438 9.76229C8.49499 9.74759 8.50827 9.73595 8.52441 9.73595C8.54055 9.73595 8.55383 9.74768 8.55445 9.76238L8.62249 11.464C8.62249 11.4974 8.65191 11.5246 8.68838 11.5252C8.72607 11.5259 8.75693 11.497 8.75693 11.4626V9.73595C8.77501 9.73595 8.79033 9.74833 8.79258 9.76471L9.03552 11.5174C9.05973 11.8123 8.85428 12.0715 8.56129 12.1557H8.53115Z" fill="white"/>
<path d="M10.9567 15.1948C11.0518 15.1264 11.1317 15.0534 11.2085 14.9774C11.3091 14.8781 11.3974 14.77 11.48 14.6578C11.4969 14.6347 11.4863 14.6226 11.4739 14.6054C11.3732 14.4655 11.3382 14.313 11.3737 14.1483C11.3885 14.0796 11.4457 14.045 11.5043 14.0678C11.549 14.0853 11.5733 14.1171 11.5603 14.1604C11.5339 14.2476 11.5579 14.3266 11.6027 14.4015C11.6738 14.5204 11.7748 14.6121 11.9115 14.6689C11.9739 14.6947 12.0385 14.7004 12.1059 14.6886C12.1615 14.6788 12.2059 14.7054 12.2175 14.7527C12.2279 14.7957 12.1935 14.8419 12.1402 14.8513C11.9786 14.8802 11.8236 14.861 11.6834 14.7817C11.6348 14.7543 11.6188 14.7664 11.5914 14.8032C11.2679 15.2401 10.8476 15.5744 10.3171 15.7891C9.91642 15.9513 9.49583 16.0234 9.05869 15.9933C8.39241 15.9473 7.83125 15.692 7.3608 15.2644C7.20246 15.1205 7.0625 14.9626 6.94062 14.792C6.91815 14.7604 6.90241 14.7569 6.86655 14.7772C6.72619 14.8566 6.57295 14.8799 6.41062 14.853C6.35198 14.8433 6.31428 14.802 6.32174 14.7576C6.33022 14.7074 6.3766 14.6799 6.43922 14.6894C6.56723 14.709 6.66888 14.6568 6.76082 14.5869C6.87136 14.503 6.95635 14.4019 6.98506 14.2689C6.99139 14.2397 6.99282 14.2108 6.98516 14.1815C6.96831 14.1167 6.99211 14.0751 7.05238 14.0625C7.10326 14.0519 7.15321 14.0871 7.16609 14.1456C7.20194 14.3083 7.16987 14.4602 7.07026 14.5987C7.05044 14.6263 7.04973 14.6432 7.07036 14.6706C7.46756 15.1988 7.99981 15.5506 8.68693 15.7006C8.81943 15.7296 8.95418 15.7485 9.09057 15.7512C9.30919 15.7555 9.48102 15.6716 9.6125 15.5146C9.74255 15.3592 9.85931 15.1958 9.97475 15.0313C10.0646 14.9035 10.1561 14.7763 10.2887 14.6797C10.4219 14.5826 10.5667 14.5631 10.7234 14.6256C10.8752 14.6862 10.949 14.7966 10.9705 14.9427C10.9827 15.0254 10.9717 15.1061 10.9568 15.1949L10.9567 15.1948ZM10.3603 15.5354C10.4884 15.4964 10.6028 15.4281 10.6759 15.346C10.751 15.2616 10.7914 15.1647 10.7951 15.0555C10.7981 14.9675 10.7717 14.8922 10.6827 14.8464C10.5853 14.7964 10.4862 14.789 10.3884 14.8468C10.3204 14.887 10.265 14.9401 10.219 14.9999C10.0904 15.1672 9.96587 15.3372 9.83725 15.5046C9.7782 15.5814 9.71364 15.6548 9.64723 15.735C9.70975 15.724 9.76441 15.7135 9.81957 15.7048C9.97343 15.6808 10.0924 15.6105 10.1825 15.4932C10.2866 15.3576 10.37 15.2134 10.428 15.0569C10.4466 15.0068 10.4896 14.982 10.5354 14.9947C10.5859 15.0088 10.6142 15.0578 10.5959 15.1063C10.5748 15.1619 10.5514 15.2168 10.5266 15.271C10.4842 15.3636 10.4263 15.4486 10.3604 15.5355L10.3603 15.5354Z" fill="#AA5403"/>
<path d="M13.1796 2.5546C13.0471 2.2169 12.7846 1.95611 12.4217 1.80108C12.1567 1.68691 11.7513 1.59557 11.1826 1.67249C11.0784 1.12207 10.7992 0.659379 10.3797 0.358932C10.0181 0.099346 9.3838 -0.153029 8.41619 0.113768C7.51035 0.363739 6.92618 0.911755 6.59421 1.52587C6.0139 1.4129 5.47863 1.60879 5.07331 2.0871C4.71432 2.51013 4.61911 3.01609 4.79925 3.54607C5.01155 4.171 5.59958 4.75868 6.24165 5.00865C6.20305 6.30057 6.24294 7.71599 6.24165 7.73162V8.40222L6.57491 8.08664C6.96653 7.81051 7.79598 7.25359 8.82793 7.11178C9.85987 6.96997 11.5575 7.4639 11.5575 7.4639L11.3872 5.69247C11.3769 5.56027 11.2534 5.46052 11.1119 5.47014C10.9703 5.47975 10.8635 5.59512 10.8738 5.72732L11.1119 6.94268C9.37568 6.58765 8.25793 6.63551 6.75891 7.4639C6.80137 6.91589 6.73703 5.81385 6.75891 4.84761L6.76277 4.66374L6.57491 4.61206C6.09882 4.47986 5.48764 3.99194 5.2882 3.40306C5.16081 3.0257 5.22386 2.68439 5.47606 2.38635C5.78101 2.02581 6.11941 1.95611 6.39477 1.98375C6.2365 2.45245 6.20819 2.92715 6.28154 3.31173C6.40249 3.94867 6.88372 4.18663 7.28002 4.13855C7.71751 4.08568 8.15885 3.68428 8.09323 2.93076C8.05205 2.46446 7.62358 1.95971 7.07801 1.69171C7.35851 1.20499 7.83588 0.774751 8.5603 0.575254C9.1612 0.409407 9.68103 0.467093 10.0645 0.741101C10.3797 0.967037 10.5946 1.33719 10.6757 1.77704C10.5689 1.80588 10.4569 1.84074 10.3411 1.8816C9.32847 2.23733 8.9772 2.86105 8.9862 3.32615C8.99264 3.63981 9.16892 3.89579 9.43527 3.97992C9.74536 4.07726 10.1378 4.00516 10.4633 3.79244C10.7374 3.61217 11.2019 3.17352 11.2264 2.24814C11.2264 2.21569 11.2264 2.18445 11.2264 2.1532C11.6085 2.09792 11.9444 2.12556 12.2056 2.23853C12.441 2.33948 12.6109 2.50653 12.6945 2.72045C12.7859 2.95239 12.7254 3.38984 12.3793 3.80566C12.0023 4.25753 11.0321 4.98221 8.75846 4.76108C8.61692 4.74546 8.49082 4.8428 8.47538 4.975C8.46123 5.1072 8.56288 5.22497 8.70441 5.23939C11.2251 5.48456 12.3432 4.63129 12.7846 4.1013C13.1976 3.60616 13.352 2.99926 13.177 2.5558L13.1796 2.5546ZM7.58112 2.96801C7.61972 3.40787 7.41899 3.63501 7.2144 3.66024C7.01496 3.68548 6.84383 3.51002 6.7885 3.2252C6.72803 2.90913 6.75119 2.52095 6.87857 2.13517C7.26973 2.34188 7.55667 2.70482 7.57983 2.96801H7.58112ZM10.1687 3.39825C9.95252 3.54006 9.72735 3.5641 9.59997 3.52324C9.55364 3.50882 9.50346 3.43791 9.50218 3.31653C9.49703 3.02931 9.7608 2.59906 10.5238 2.32986C10.5869 2.30703 10.6499 2.2866 10.7117 2.26857C10.6847 2.9584 10.3617 3.27207 10.1687 3.39705V3.39825Z" fill="url(#paint0_linear_1176_8216)"/>
</g>
<defs>
<linearGradient id="paint0_linear_1176_8216" x1="9.78563" y1="0.268156" x2="9.82774" y2="7.10616" gradientUnits="userSpaceOnUse">
<stop stop-color="#AA5403"/>
<stop offset="1" stop-color="#643203"/>
</linearGradient>
<clipPath id="clip0_1176_8216">
<rect width="18.5397" height="16" fill="white"/>
</clipPath>
</defs>
</svg>
