<svg width="189" height="179" viewBox="0 0 189 179" fill="none" xmlns="http://www.w3.org/2000/svg">
<path d="M183.467 96.1518C182.026 96.1518 180.709 96.7129 179.73 97.6321C178.752 98.5523 178.112 99.8317 178.022 101.27L178.016 101.375C176.352 99.433 174.326 97.9236 171.938 96.844C169.551 95.7666 166.771 95.2273 163.597 95.2273C160.423 95.2273 157.821 95.8363 155.418 97.0522C153.016 98.2702 151.167 100.219 149.873 102.899C148.208 100.557 146.107 98.6929 143.564 97.3073C141.022 95.9207 138.013 95.2273 134.53 95.2273C131.943 95.2273 129.632 95.575 127.598 96.2673C126.361 96.6889 125.24 97.2615 124.236 97.9808C123.227 96.6598 122.128 95.4012 120.939 94.2123C117.502 90.7749 113.498 88.0756 109.038 86.1892C104.418 84.2352 99.5138 83.2452 94.4607 83.2452C89.4076 83.2452 84.5034 84.2352 79.8834 86.1892C75.4237 88.0756 71.4199 90.7749 67.9825 94.2123C66.7937 95.4012 65.6943 96.6598 64.6856 97.9808C63.681 97.2615 62.5609 96.6889 61.3231 96.2673C59.29 95.575 56.979 95.2273 54.392 95.2273C50.9088 95.2273 47.8992 95.9207 45.3571 97.3073C42.8149 98.6929 40.7131 100.557 39.0485 102.899C37.7545 100.219 35.9057 98.2702 33.503 97.0522C31.1003 95.8363 28.3739 95.2273 25.3248 95.2273C22.2757 95.2273 19.3702 95.7666 16.9831 96.844C14.595 97.9236 12.5692 99.433 10.9057 101.375L10.8994 101.27C10.7214 98.3941 8.33645 96.1518 5.45492 96.1518C3.94857 96.1518 2.58484 96.7628 1.59796 97.7497C0.610035 98.7366 0 100.1 0 101.607V146.153H11.2294V109.923C12.0914 108.229 13.3011 106.889 14.8574 105.903C16.4116 104.917 18.3927 104.424 20.7953 104.424C22.182 104.424 23.4291 104.586 24.5388 104.909C25.6475 105.233 26.5948 105.763 27.3798 106.504C28.1657 107.243 28.7664 108.213 29.1828 109.415C29.5982 110.616 29.8064 112.095 29.8064 113.851V140.539C29.8064 143.64 32.3204 146.153 35.4206 146.153C36.9706 146.153 38.375 145.524 39.391 144.509C40.407 143.493 41.0358 142.089 41.0358 140.539V112.834C41.0358 112.681 41.0285 112.519 41.0129 112.349C40.9973 112.179 40.99 112.018 40.99 111.863C41.6365 109.645 42.7681 107.851 44.3868 106.48C46.0035 105.11 48.0897 104.424 50.6475 104.424C52.0341 104.424 53.274 104.562 54.3681 104.84C55.4612 105.117 56.4012 105.61 57.1872 106.318C57.9211 106.98 58.4905 107.853 58.9017 108.93C57.6504 112.709 57.0154 116.652 57.0154 120.691C57.0154 125.743 58.0064 130.648 59.9604 135.268C61.8467 139.727 64.5461 143.731 67.9825 147.168C71.4199 150.605 75.4237 153.305 79.8834 155.191C80.813 155.584 81.7551 155.938 82.7066 156.253C84.2005 156.748 85.7193 157.146 87.2611 157.445C89.6158 157.905 92.0206 158.136 94.4607 158.136C96.9009 158.136 99.2473 157.91 101.575 157.461C103.183 157.153 104.768 156.738 106.324 156.216C107.239 155.911 108.144 155.569 109.038 155.191C113.498 153.305 117.502 150.605 120.939 147.168C124.376 143.731 127.075 139.727 128.961 135.268C130.915 130.648 131.906 125.743 131.906 120.691C131.906 116.652 131.271 112.709 130.02 108.93C130.431 107.853 131 106.98 131.734 106.318C132.52 105.61 133.46 105.117 134.553 104.84C135.649 104.562 136.887 104.424 138.274 104.424C140.832 104.424 142.918 105.11 144.535 106.48C146.153 107.851 147.285 109.645 147.931 111.863C147.931 112.018 147.924 112.179 147.909 112.349C147.893 112.519 147.886 112.681 147.886 112.834V140.539C147.886 143.64 150.4 146.153 153.501 146.153C155.051 146.153 156.454 145.524 157.47 144.509C158.486 143.493 159.115 142.089 159.115 140.539V113.851C159.115 112.095 159.323 110.616 159.739 109.415C160.155 108.213 160.756 107.243 161.542 106.504C162.327 105.763 163.274 105.233 164.383 104.909C165.492 104.586 166.74 104.424 168.126 104.424C170.529 104.424 172.51 104.917 174.064 105.903C175.62 106.889 176.83 108.229 177.692 109.923V146.153H188.921V101.607C188.921 98.594 186.479 96.1518 183.467 96.1518ZM106.055 144.645C104.719 145.295 103.321 145.835 101.873 146.255C99.519 146.94 97.032 147.306 94.4607 147.306C91.8894 147.306 89.3389 146.93 86.9592 146.229C85.583 145.825 84.2515 145.312 82.9773 144.7C74.0339 140.404 67.8451 131.256 67.8451 120.691C67.8451 106.014 79.7845 94.0749 94.4607 94.0749C109.137 94.0749 121.076 106.014 121.076 120.691C121.076 131.213 114.939 140.329 106.055 144.645Z" fill="#8F0E0E"/>
<path d="M94.4607 144.477C107.597 144.477 118.247 133.827 118.247 120.691C118.247 107.554 107.597 96.9044 94.4607 96.9044C81.324 96.9044 70.6746 107.554 70.6746 120.691C70.6746 133.827 81.324 144.477 94.4607 144.477Z" fill="#8F0E0E"/>
<path d="M106.05 134.981C106.038 136.245 106.021 138.545 106.033 141.477C106.037 142.465 106.044 143.527 106.055 144.645C106.091 148.114 106.169 152.126 106.324 156.216C104.768 156.738 103.183 157.153 101.575 157.461C101.738 153.564 101.827 149.696 101.873 146.255C101.887 145.224 101.897 144.231 101.904 143.288C101.934 139.386 101.912 136.322 101.897 134.853C98.4 133.301 95.835 128.192 95.835 122.129C95.835 114.835 99.5483 108.921 104.128 108.921C108.707 108.921 112.421 114.835 112.421 122.129C112.421 128.37 109.704 133.599 106.05 134.981Z" fill="white"/>
<path d="M86.9343 135.991C86.9208 137.471 86.9062 140.053 86.9301 143.259C86.9353 144.199 86.9458 145.193 86.9593 146.229C87.0041 149.658 87.0936 153.543 87.2612 157.445C85.7194 157.146 84.2006 156.748 82.7067 156.253C82.8671 152.165 82.9441 148.144 82.9774 144.7C82.9889 143.578 82.9951 142.519 82.9982 141.537C83.0076 139.114 82.9961 137.17 82.9847 135.967C80.0084 134.992 77.9431 132.064 78.2356 128.759L80.6341 109.244C80.6559 109.059 80.8131 108.921 80.9974 108.921H81.0161V128.254C81.0161 128.627 81.3149 128.931 81.6876 128.939C82.0717 128.946 82.3861 128.622 82.3861 128.238L83.2116 109.168C83.2179 109.03 83.3314 108.921 83.4698 108.921C83.6083 108.921 83.7217 109.031 83.7269 109.17L84.4265 128.254C84.4265 128.632 84.7326 128.939 85.1104 128.939C85.4883 128.939 85.7954 128.632 85.7954 128.254L86.5595 109.215C86.5658 109.051 86.7011 108.921 86.8656 108.921C87.0301 108.921 87.1654 109.052 87.1717 109.216L87.865 128.254C87.865 128.627 88.1648 128.931 88.5364 128.939C88.9206 128.946 89.235 128.622 89.235 128.238V108.921C89.4192 108.921 89.5754 109.059 89.5983 109.243L92.0738 128.851C92.3205 132.15 90.227 135.05 87.2414 135.991H86.9343Z" fill="white"/>
<path d="M111.649 169.992C112.618 169.227 113.432 168.41 114.215 167.56C115.239 166.448 116.14 165.24 116.981 163.984C117.154 163.726 117.046 163.591 116.92 163.398C115.893 161.833 115.536 160.127 115.898 158.285C116.049 157.515 116.632 157.128 117.229 157.383C117.685 157.579 117.932 157.935 117.799 158.42C117.531 159.396 117.775 160.279 118.231 161.117C118.956 162.447 119.985 163.473 121.378 164.108C122.014 164.398 122.672 164.461 123.359 164.329C123.926 164.22 124.378 164.517 124.496 165.046C124.602 165.527 124.251 166.043 123.709 166.15C122.062 166.472 120.483 166.258 119.054 165.371C118.559 165.064 118.396 165.199 118.117 165.611C114.82 170.499 110.537 174.238 105.131 176.641C101.048 178.456 96.7624 179.262 92.3079 178.925C85.5184 178.411 79.8001 175.554 75.0062 170.771C73.3926 169.16 71.9664 167.395 70.7245 165.486C70.4955 165.133 70.3351 165.093 69.9697 165.32C68.5394 166.208 66.9779 166.469 65.3237 166.168C64.7261 166.06 64.342 165.598 64.418 165.101C64.5044 164.539 64.977 164.231 65.6152 164.338C66.9196 164.557 67.9554 163.973 68.8923 163.191C70.0187 162.252 70.8848 161.122 71.1773 159.634C71.2419 159.307 71.2564 158.983 71.1784 158.655C71.0066 157.931 71.2492 157.466 71.8634 157.325C72.3818 157.206 72.8908 157.6 73.022 158.254C73.3874 160.074 73.0605 161.773 72.0455 163.323C71.8436 163.633 71.8363 163.821 72.0466 164.128C76.094 170.037 81.5177 173.973 88.5196 175.651C89.8698 175.975 91.2429 176.186 92.6327 176.216C94.8604 176.265 96.6114 175.326 97.9512 173.57C99.2764 171.832 100.466 170.004 101.643 168.163C102.558 166.733 103.49 165.31 104.842 164.229C106.199 163.143 107.674 162.925 109.271 163.624C110.818 164.302 111.571 165.538 111.789 167.172C111.913 168.096 111.802 169 111.65 169.993L111.649 169.992ZM105.571 173.802C106.877 173.366 108.043 172.602 108.787 171.684C109.552 170.74 109.965 169.656 110.002 168.434C110.032 167.449 109.764 166.607 108.857 166.095C107.864 165.534 106.854 165.452 105.858 166.099C105.164 166.548 104.6 167.143 104.132 167.811C102.821 169.683 101.552 171.585 100.241 173.458C99.6397 174.317 98.9818 175.138 98.3052 176.035C98.9423 175.912 99.4992 175.795 100.061 175.698C101.629 175.429 102.842 174.642 103.76 173.331C104.821 171.814 105.67 170.2 106.262 168.449C106.451 167.889 106.889 167.611 107.356 167.754C107.87 167.911 108.158 168.46 107.972 169.002C107.758 169.624 107.519 170.238 107.266 170.845C106.834 171.88 106.244 172.831 105.572 173.803L105.571 173.802Z" fill="#713802"/>
<path d="M134.302 28.5796C132.951 24.8016 130.276 21.884 126.579 20.1496C123.878 18.8723 119.748 17.8505 113.952 18.711C112.89 12.5532 110.045 7.37682 105.77 4.01556C102.086 1.11144 95.622 -1.71202 85.7619 1.27278C76.5313 4.06934 70.5785 10.2003 67.1957 17.0707C61.2823 15.8069 55.8278 17.9984 51.6976 23.3495C48.0395 28.0822 47.0692 33.7425 48.9048 39.6718C51.0683 46.6632 57.0603 53.2378 63.6031 56.0344C63.2097 70.4878 63.6162 86.3229 63.6031 86.4977V94L66.999 90.4695C70.9897 87.3803 79.442 81.1497 89.9576 79.5632C100.473 77.9767 117.772 83.5026 117.772 83.5026L116.037 63.6846C115.932 62.2057 114.673 61.0897 113.231 61.1973C111.789 61.3048 110.7 62.5956 110.805 64.0745L113.231 77.6714C95.5392 73.6995 84.1492 74.235 68.874 83.5026C69.3067 77.3717 68.6511 65.0426 68.874 54.2327L68.9134 52.1757L66.999 51.5975C62.1477 50.1186 55.9196 44.6599 53.8873 38.0718C52.5892 33.8501 53.2317 30.0317 55.8016 26.6973C58.9091 22.6638 62.3575 21.884 65.1634 22.1932C63.5507 27.4368 63.2622 32.7476 64.0096 37.05C65.2421 44.1759 70.1459 46.838 74.1843 46.3002C78.6423 45.7086 83.1396 41.218 82.4709 32.7879C82.0513 27.5713 77.6851 21.9243 72.1257 18.9261C74.9841 13.4809 79.8485 8.66754 87.2304 6.43567C93.3536 4.58025 98.6508 5.22562 102.558 8.29108C105.77 10.8187 107.96 14.9598 108.786 19.8807C107.698 20.2034 106.557 20.5933 105.377 21.0504C95.0582 25.0301 91.4787 32.0081 91.5704 37.2113C91.636 40.7205 93.4323 43.5843 96.1464 44.5254C99.3064 45.6145 103.305 44.8078 106.623 42.428C109.416 40.4113 114.149 35.5038 114.398 25.1511C114.398 24.7881 114.398 24.4386 114.398 24.089C118.292 23.4705 121.714 23.7798 124.376 25.0436C126.775 26.173 128.506 28.0418 129.358 30.435C130.289 33.0299 129.673 37.9239 126.146 42.5759C122.304 47.6312 112.418 55.7386 89.2497 53.2647C87.8074 53.0899 86.5224 54.179 86.3651 55.6579C86.2209 57.1369 87.2567 58.4545 88.699 58.6158C114.385 61.3586 125.779 51.8126 130.276 45.8834C134.485 40.344 136.059 33.5543 134.275 28.5931L134.302 28.5796ZM77.2524 33.2047C77.6458 38.1256 75.6003 40.6667 73.5156 40.9491C71.4833 41.2314 69.7394 39.2684 69.1756 36.082C68.5593 32.5459 68.7953 28.2032 70.0934 23.8873C74.0794 26.1999 77.0033 30.2603 77.2393 33.2047H77.2524ZM103.62 38.018C101.417 39.6046 99.1228 39.8735 97.8247 39.4163C97.3527 39.255 96.8414 38.4617 96.8282 37.1038C96.7758 33.8904 99.4637 29.0771 107.239 26.0654C107.881 25.81 108.524 25.5814 109.153 25.3797C108.878 33.0972 105.587 36.6063 103.62 38.0046V38.018Z" fill="url(#paint0_linear_1176_4269)"/>
<defs>
<linearGradient id="paint0_linear_1176_4269" x1="99.7167" y1="3" x2="100.234" y2="79.4998" gradientUnits="userSpaceOnUse">
<stop stop-color="#B40505"/>
<stop offset="1" stop-color="#7F0000"/>
</linearGradient>
</defs>
</svg>
