<svg width="23" height="23" viewBox="0 0 23 23" fill="none" xmlns="http://www.w3.org/2000/svg">
<path d="M18.1366 5.61501H17.7699L14.6716 2.51668C14.4241 2.26918 14.0208 2.26918 13.7641 2.51668C13.5166 2.76418 13.5166 3.16751 13.7641 3.42418L15.9549 5.61501H7.04492L9.23575 3.42418C9.48325 3.17668 9.48325 2.77335 9.23575 2.51668C8.98825 2.26918 8.58492 2.26918 8.32825 2.51668L5.23909 5.61501H4.87242C4.04742 5.61501 2.33325 5.61501 2.33325 7.96168C2.33325 8.85085 2.51659 9.43751 2.90159 9.82251C3.12159 10.0517 3.38742 10.1708 3.67159 10.235C3.93742 10.2992 4.22159 10.3083 4.49659 10.3083H18.5033C18.7874 10.3083 19.0533 10.29 19.3099 10.235C20.0799 10.0517 20.6666 9.50168 20.6666 7.96168C20.6666 5.61501 18.9524 5.61501 18.1366 5.61501Z" fill="#FA7E0A"/>
<path d="M17.9621 11.5H4.96378C4.39545 11.5 3.96461 12.0042 4.05628 12.5633L4.82628 17.275C5.08295 18.8517 5.77045 20.6667 8.82295 20.6667H13.9654C17.0546 20.6667 17.6046 19.1175 17.9346 17.385L18.8604 12.5908C18.9704 12.0225 18.5396 11.5 17.9621 11.5ZM10.2254 17.4125C10.2254 17.77 9.94128 18.0542 9.59295 18.0542C9.23545 18.0542 8.95128 17.77 8.95128 17.4125V14.3875C8.95128 14.0392 9.23545 13.7458 9.59295 13.7458C9.94128 13.7458 10.2254 14.0392 10.2254 14.3875V17.4125ZM14.1488 17.4125C14.1488 17.77 13.8646 18.0542 13.5071 18.0542C13.1588 18.0542 12.8654 17.77 12.8654 17.4125V14.3875C12.8654 14.0392 13.1588 13.7458 13.5071 13.7458C13.8646 13.7458 14.1488 14.0392 14.1488 14.3875V17.4125Z" fill="#FA7E0A"/>
</svg>
