<svg width="20" height="20" viewBox="0 0 20 20" fill="none" xmlns="http://www.w3.org/2000/svg">
<path d="M2.94872 5.77782L2.94907 5.77755L7.44039 2.27783C7.44046 2.27777 7.44054 2.27771 7.44062 2.27764C8.61671 1.3631 10.5337 1.31827 11.7544 2.17564L11.7548 2.17597L16.9048 5.78431L16.9057 5.78492C17.3206 6.07432 17.7139 6.54911 18.0038 7.1042C18.2937 7.65931 18.4584 8.25291 18.4584 8.75815V14.8248C18.4584 16.8243 16.8316 18.4581 14.8251 18.4581H5.17508C3.1692 18.4581 1.54175 16.825 1.54175 14.8165V8.64148C1.54175 8.16935 1.69021 7.60541 1.95305 7.07022C2.2158 6.53519 2.57244 6.07049 2.94872 5.77782ZM3.10109 5.97208L3.10108 5.97207L3.09877 5.9739C2.72628 6.26769 2.40578 6.71768 2.17966 7.17682C1.95384 7.63533 1.79175 8.16469 1.79175 8.64148V14.8165C1.79175 16.6824 3.3054 18.2081 5.17508 18.2081H14.8251C16.6929 18.2081 18.2084 16.6926 18.2084 14.8248V8.75815C18.2084 8.25279 18.0317 7.69534 17.7819 7.21649C17.5329 6.73906 17.1775 6.2752 16.7598 5.98877L11.6123 2.3822C11.033 1.97565 10.2935 1.79812 9.58611 1.81347C8.87907 1.82882 8.14933 2.03812 7.59276 2.47208C7.59271 2.47212 7.59266 2.47216 7.59261 2.4722L3.10109 5.97208Z" fill="#626E94" stroke="#626E94"/>
<path d="M10 15.125C9.96985 15.125 9.93857 15.1127 9.91293 15.0871C9.88728 15.0614 9.875 15.0301 9.875 15V12.5C9.875 12.4699 9.88728 12.4386 9.91293 12.4129C9.93857 12.3873 9.96985 12.375 10 12.375C10.0301 12.375 10.0614 12.3873 10.0871 12.4129C10.1127 12.4386 10.125 12.4699 10.125 12.5V15C10.125 15.0301 10.1127 15.0614 10.0871 15.0871C10.0614 15.1127 10.0301 15.125 10 15.125Z" fill="#7E8AAB" stroke="#626E94"/>
</svg>
