<svg width="24" height="24" viewBox="0 0 24 24" fill="none" xmlns="http://www.w3.org/2000/svg">
    <path
        d="M20.9 9.85L21.49 19.74C21.51 20.01 21.38 20.19 21.31 20.27C21.23 20.36 21.06 20.5 20.78 20.5H18.05L20.21 9.85H20.9ZM22 6L21.99 6.02C22.01 6.26 21.99 6.51 21.93 6.76L14.56 20.29C14.32 21.3 13.42 22 12.38 22H20.78C22.07 22 23.09 20.91 22.99 19.62L22 6Z"
        fill="#FA7E0A" />
    <path
        d="M11.45 2.24002C11.55 1.84002 11.3 1.43002 10.9 1.33002C10.5 1.24002 10.09 1.48002 9.98999 1.88002L9.48999 3.95002H11.03L11.45 2.24002Z"
        fill="#FA7E0A" />
    <path
        d="M18.05 2.20999C18.14 1.79999 17.88 1.40999 17.47 1.31999C17.07 1.22999 16.67 1.48999 16.58 1.89999L16.13 3.96999H17.67L18.05 2.20999Z"
        fill="#FA7E0A" />
    <path
        d="M21.8198 5.32994C21.4898 4.52994 20.7098 3.95994 19.7498 3.95994H17.6698L17.1098 6.54994C17.0298 6.89994 16.7198 7.13994 16.3798 7.13994C16.3298 7.13994 16.2698 7.13994 16.2198 7.11994C15.8198 7.02994 15.5598 6.62994 15.6398 6.22994L16.1298 3.94994H11.0298L10.3998 6.54994C10.3198 6.88994 10.0098 7.11994 9.66975 7.11994C9.60975 7.11994 9.54976 7.10994 9.48975 7.09994C9.08976 6.99994 8.83975 6.59994 8.93975 6.18994L9.47975 3.93994H7.44975C6.46975 3.93994 5.59975 4.57994 5.30975 5.51994L1.09975 19.0699C0.659754 20.5199 1.72975 21.9999 3.23975 21.9999H16.3798C17.4198 21.9999 18.3198 21.2999 18.5598 20.2899L21.9298 6.75994C21.9898 6.50994 22.0098 6.25994 21.9898 6.01994C21.9698 5.77994 21.9198 5.53994 21.8198 5.32994ZM14.6998 16.7499H6.69975C6.28975 16.7499 5.94975 16.4099 5.94975 15.9999C5.94975 15.5899 6.28975 15.2499 6.69975 15.2499H14.6998C15.1098 15.2499 15.4498 15.5899 15.4498 15.9999C15.4498 16.4099 15.1098 16.7499 14.6998 16.7499ZM15.6998 12.7499H7.69975C7.28975 12.7499 6.94975 12.4099 6.94975 11.9999C6.94975 11.5899 7.28975 11.2499 7.69975 11.2499H15.6998C16.1098 11.2499 16.4498 11.5899 16.4498 11.9999C16.4498 12.4099 16.1098 12.7499 15.6998 12.7499Z"
        fill="#FA7E0A" />
</svg>