<svg width="20" height="21" viewBox="0 0 20 21" fill="none" xmlns="http://www.w3.org/2000/svg">
    <path
        d="M11.613 3.2344L11.6132 3.23459L16.4131 6.59286C16.4132 6.59288 16.4132 6.5929 16.4132 6.59292C16.7908 6.85722 17.153 7.29454 17.4212 7.80839C17.6895 8.32226 17.8415 8.87001 17.8415 9.33324V14.9832C17.8415 16.8321 16.3404 18.3332 14.4915 18.3332H5.5082C3.66075 18.3332 2.1582 16.8252 2.1582 14.9749V9.22491C2.1582 8.79547 2.29567 8.27556 2.54011 7.7791C2.78441 7.28292 3.11427 6.85345 3.45739 6.58583L3.45749 6.58574L7.63111 3.32848C7.63133 3.32831 7.63155 3.32814 7.63177 3.32798C8.71694 2.48768 10.4843 2.44365 11.613 3.2344ZM9.99987 16.6249C10.6177 16.6249 11.1249 16.1177 11.1249 15.4999V12.9999C11.1249 12.3821 10.6177 11.8749 9.99987 11.8749C9.38206 11.8749 8.87487 12.3821 8.87487 12.9999V15.4999C8.87487 16.1177 9.38206 16.6249 9.99987 16.6249Z"
        fill="#FA7E0A" stroke="#FA7E0A" />
</svg>