<svg width="42" height="42" viewBox="0 0 42 42" fill="none" xmlns="http://www.w3.org/2000/svg">
<g clip-path="url(#clip0_230_6909)">
<path d="M40.5577 19.9206H1.4455C0.987849 19.9206 0.616821 19.5496 0.616821 19.0919V17.4346C0.616821 16.977 0.987849 16.606 1.4455 16.606H40.5578C41.0154 16.606 41.3864 16.977 41.3864 17.4346V19.0919C41.3864 19.5496 41.0153 19.9206 40.5577 19.9206Z" fill="#FDD4AD"/>
<path d="M40.5577 16.606H38.4032C38.8609 16.606 39.2319 16.977 39.2319 17.4346V19.0919C39.2319 19.5496 38.8609 19.9206 38.4032 19.9206H40.5577C41.0153 19.9206 41.3863 19.5496 41.3863 19.0919V17.4346C41.3863 16.9769 41.0153 16.606 40.5577 16.606Z" fill="#C66204"/>
<path d="M2.81274 19.9205L5.40395 35.2505C5.60615 36.4463 6.64278 37.3221 7.85512 37.3221H34.1573C35.3663 37.3221 36.3996 36.4528 36.6068 35.2621L39.2733 19.9204L2.81274 19.9205ZM15.3668 32.516C15.3668 32.9734 14.9956 33.3447 14.5381 33.3447H12.8809C12.4234 33.3447 12.0522 32.9734 12.0522 32.516V24.2295C12.0522 23.7721 12.4234 23.4008 12.8809 23.4008H14.5381C14.9955 23.4008 15.3668 23.7721 15.3668 24.2295V32.516ZM22.6589 32.516C22.6589 32.9734 22.2876 33.3447 21.8302 33.3447H20.1729C19.7155 33.3447 19.3443 32.9734 19.3443 32.516V24.2295C19.3443 23.7721 19.7155 23.4008 20.1729 23.4008H21.8302C22.2876 23.4008 22.6589 23.7721 22.6589 24.2295V32.516ZM29.9511 32.516C29.9511 32.9734 29.5799 33.3447 29.1224 33.3447H27.4651C27.0077 33.3447 26.6364 32.9734 26.6364 32.516V24.2295C26.6364 23.7721 27.0077 23.4008 27.4651 23.4008H29.1224C29.5798 23.4008 29.9511 23.7721 29.9511 24.2295V32.516Z" fill="#FEF1E4"/>
<path d="M37.0774 19.9209L34.4108 35.2625C34.2037 36.4533 33.1703 37.3226 31.9614 37.3226H34.1573C35.3662 37.3226 36.3996 36.4533 36.6067 35.2625L39.2733 19.9209H37.0774Z" fill="#E27005"/>
<path d="M26.9565 18.9866L21.1683 7.0584C20.7687 6.23497 21.1123 5.24346 21.9358 4.84389C22.7592 4.44431 23.7507 4.78794 24.1503 5.61137L29.9385 17.5395C30.3381 18.363 29.9944 19.3545 29.171 19.7541C28.3475 20.1537 27.3561 19.8101 26.9565 18.9866Z" fill="#FB9B40"/>
<path d="M15.0467 18.9866L20.8349 7.0584C21.2345 6.23497 20.8909 5.24346 20.0674 4.84389C19.244 4.44431 18.2525 4.78794 17.8529 5.61137L12.0647 17.5395C11.6651 18.363 12.0088 19.3545 12.8322 19.7541C13.6557 20.1537 14.6471 19.8101 15.0467 18.9866Z" fill="#FB9B40"/>
<path d="M29.9385 17.5395L24.1503 5.61133C23.7528 4.79225 22.7698 4.44854 21.9489 4.83827C22.278 4.99413 22.5587 5.25819 22.73 5.61133L28.5182 17.5395C28.9178 18.3629 28.5742 19.3544 27.7507 19.754C27.7464 19.7561 27.742 19.7575 27.7376 19.7596C28.176 19.9672 28.7007 19.9822 29.171 19.754C29.9945 19.3544 30.3381 18.363 29.9385 17.5395Z" fill="#FDD4AD"/>
<path d="M20.0674 4.84398C19.597 4.61577 19.0723 4.63078 18.634 4.8384C18.6383 4.84045 18.6428 4.84185 18.6471 4.84398C19.4705 5.24355 19.8142 6.23507 19.4146 7.0585L13.6264 18.9867C13.455 19.3398 13.1744 19.6039 12.8453 19.7597C13.6662 20.1495 14.6491 19.8058 15.0467 18.9867L20.8349 7.0585C21.2345 6.23507 20.8909 5.24355 20.0674 4.84398Z" fill="#FDD4AD"/>
<path d="M12.8808 22.7857C12.0846 22.7857 11.4369 23.4334 11.4369 24.2296V32.5162C11.4369 33.3124 12.0846 33.9601 12.8808 33.9601H14.5382C15.3344 33.9601 15.9821 33.3124 15.9821 32.5162V24.2296C15.9821 23.4334 15.3344 22.7856 14.5382 22.7856H12.8808V22.7857ZM14.7515 24.2296V32.5161C14.7515 32.6338 14.6558 32.7296 14.5381 32.7296H12.8807C12.763 32.7296 12.6673 32.6338 12.6673 32.5161V24.2296C12.6673 24.1118 12.763 24.0161 12.8807 24.0161H14.5381C14.6558 24.0162 14.7515 24.1119 14.7515 24.2296Z" fill="#FA7E0A"/>
<path d="M20.1729 22.7857C19.3767 22.7857 18.729 23.4334 18.729 24.2296V32.5162C18.729 33.3124 19.3767 33.9601 20.1729 33.9601H21.8302C22.6264 33.9601 23.2741 33.3124 23.2741 32.5162V24.2296C23.2741 23.4334 22.6264 22.7856 21.8302 22.7856H20.1729V22.7857ZM22.0436 24.2296V32.5161C22.0436 32.6338 21.9479 32.7296 21.8302 32.7296H20.1729C20.0552 32.7296 19.9595 32.6338 19.9595 32.5161V24.2296C19.9595 24.1118 20.0552 24.0161 20.1729 24.0161H21.8302C21.9479 24.0162 22.0436 24.1119 22.0436 24.2296Z" fill="#FA7E0A"/>
<path d="M29.1223 22.7856H27.465C26.6688 22.7856 26.0211 23.4334 26.0211 24.2296V32.5161C26.0211 33.3123 26.6688 33.96 27.465 33.96H29.1223C29.9185 33.96 30.5662 33.3123 30.5662 32.5161V24.2295C30.5662 23.4334 29.9185 22.7856 29.1223 22.7856ZM29.3358 32.516C29.3358 32.6337 29.24 32.7295 29.1223 32.7295H27.465C27.3473 32.7295 27.2515 32.6337 27.2515 32.516V24.2295C27.2515 24.1118 27.3473 24.016 27.465 24.016H29.1223C29.24 24.016 29.3358 24.1118 29.3358 24.2295V32.516Z" fill="#FA7E0A"/>
<path d="M40.5578 15.991H36.4062C36.0665 15.991 35.791 16.2664 35.791 16.6062C35.791 16.9461 36.0665 17.2214 36.4062 17.2214H40.5578C40.6755 17.2214 40.7711 17.3171 40.7711 17.4347V19.0918C40.7711 19.2097 40.6754 19.3058 40.5578 19.3058H30.4668C30.516 19.2101 30.5589 19.1105 30.5947 19.0072C30.7935 18.4336 30.7571 17.817 30.492 17.2709L30.468 17.2214H33.5269C33.8667 17.2214 34.1422 16.946 34.1422 16.6061C34.1422 16.2663 33.8667 15.9909 33.5269 15.9909H29.8709L24.7038 5.34267C24.1567 4.21539 22.7943 3.74339 21.6672 4.29029C21.4132 4.4135 21.1892 4.57969 21.0016 4.77952C20.814 4.57978 20.59 4.4135 20.336 4.29029C19.2086 3.7433 17.8464 4.21539 17.2994 5.34267L12.1323 15.991H1.44534C0.649224 15.991 0.00158691 16.6387 0.00158691 17.4347V19.0918C0.00158691 19.8883 0.649306 20.5362 1.44534 20.5362H2.2928L4.79746 35.3536C5.05028 36.8509 6.33629 37.9376 7.85526 37.9376H28.8594C29.1991 37.9376 29.4746 37.6622 29.4746 37.3224C29.4746 36.9825 29.1991 36.7071 28.8594 36.7071H7.85526C6.93897 36.7071 6.16328 36.0517 6.01079 35.1486L3.54074 20.5362H5.40581C5.74558 20.5362 6.02104 20.2609 6.02104 19.921C6.02104 19.5812 5.74558 19.3058 5.40581 19.3058H1.44534C1.3277 19.3058 1.23206 19.2097 1.23206 19.0918V17.4347C1.23206 17.3171 1.32779 17.2214 1.44534 17.2214H11.5352L11.5111 17.271C11.2462 17.8171 11.2097 18.4337 11.4084 19.0073C11.4443 19.1106 11.4872 19.2102 11.5363 19.3059H8.2851C7.94533 19.3059 7.66987 19.5812 7.66987 19.9211C7.66987 20.261 7.94533 20.5363 8.2851 20.5363H38.5418L36.0002 35.1573C35.8442 36.0552 35.069 36.7071 34.1569 36.7071H31.7387C31.3989 36.7071 31.1234 36.9825 31.1234 37.3224C31.1234 37.6622 31.3989 37.9376 31.7387 37.9376H34.1569C35.6689 37.9376 36.954 36.8569 37.2125 35.3679L39.7908 20.5362H40.5578C41.354 20.5362 42.0016 19.8883 42.0016 19.0918V17.4347C42.0016 16.6386 41.3539 15.991 40.5578 15.991ZM21.6747 5.99367C21.7658 5.73067 21.9539 5.51887 22.2043 5.39738C22.3505 5.32642 22.5051 5.29287 22.6576 5.29287C23.0445 5.29287 23.4168 5.50919 23.5968 5.87989L29.385 17.8081C29.5065 18.0586 29.5232 18.3413 29.4321 18.6042C29.341 18.8672 29.1528 19.079 28.9024 19.2005C28.652 19.3222 28.3692 19.3388 28.1062 19.2476C27.8432 19.1566 27.6315 18.9684 27.5099 18.7179L21.7217 6.78978C21.6002 6.53934 21.5835 6.25666 21.6747 5.99367ZM21.0016 8.12418L24.819 15.991H17.1842L21.0016 8.12418ZM18.4064 5.87989C18.5863 5.50903 18.9586 5.29287 19.3455 5.29287C19.498 5.29287 19.6527 5.32651 19.7988 5.39738C20.0492 5.51879 20.2374 5.73059 20.3285 5.99367C20.4197 6.25666 20.4029 6.53934 20.2814 6.78978L14.4932 18.7179C14.3717 18.9684 14.16 19.1566 13.8969 19.2476C13.634 19.3388 13.3512 19.3222 13.1007 19.2005C12.8504 19.0791 12.6622 18.8673 12.5711 18.6042C12.4799 18.3413 12.4967 18.0586 12.6182 17.8081L18.4064 5.87989ZM15.6002 19.2552L16.5871 17.2214H25.4161L26.4029 19.2552C26.4112 19.2723 26.4203 19.2889 26.429 19.3058H15.5742C15.5828 19.2889 15.5919 19.2723 15.6002 19.2552Z" fill="#FA7E0A"/>
</g>
<defs>
<clipPath id="clip0_230_6909">
<rect width="42" height="42" fill="white" transform="translate(0.00158691)"/>
</clipPath>
</defs>
</svg>
