<svg width="42" height="42" viewBox="0 0 42 42" fill="none" xmlns="http://www.w3.org/2000/svg">
<g clip-path="url(#clip0_230_6879)">
<path d="M24.9383 6.5625H21.4383V8.3125C21.4383 9.2785 20.6543 10.0625 19.6883 10.0625H10.0633C9.09729 10.0625 8.31329 9.2785 8.31329 8.3125V6.5625H4.81329C2.88829 6.5625 1.31329 8.1375 1.31329 10.0625V31.9375C1.31329 33.8625 2.88829 35.4375 4.81329 35.4375H24.9383C26.8633 35.4375 28.4383 33.8625 28.4383 31.9375V10.0625C28.4383 8.1375 26.8633 6.5625 24.9383 6.5625Z" fill="#F5F8FC"/>
<path d="M21.4383 4.8125V8.3125C21.4383 9.2785 20.6543 10.0625 19.6883 10.0625H10.0633C9.09729 10.0625 8.31329 9.2785 8.31329 8.3125V4.8125H11.3758C11.3758 2.8875 12.9508 1.3125 14.8758 1.3125C16.8008 1.3125 18.3758 2.8875 18.3758 4.8125H21.4383Z" fill="#7E8AAB"/>
<path d="M40.1883 30.625C40.1883 35.9062 35.907 40.1875 30.6258 40.1875C25.3446 40.1875 21.0633 35.9062 21.0633 30.625C21.0633 25.3438 25.3446 21.0625 30.6258 21.0625C35.907 21.0625 40.1883 25.3438 40.1883 30.625Z" fill="#E4EAF0" stroke="black"/>
<path d="M12.2508 8.3125V4.8125H15.3133C15.3133 3.61725 15.9223 2.55675 16.8445 1.925C16.2828 1.54 15.6055 1.3125 14.8758 1.3125C12.9508 1.3125 11.3758 2.8875 11.3758 4.8125H8.31329V8.3125C8.31329 9.2785 9.09729 10.0625 10.0633 10.0625H14.0008C13.0348 10.0625 12.2508 9.2785 12.2508 8.3125Z" fill="#626E94"/>
<path d="M29.3133 29.3125H31.9383V35.4375H29.3133V29.3125Z" fill="black"/>
<path d="M30.6258 27.125C31.3507 27.125 31.9383 26.5374 31.9383 25.8125C31.9383 25.0876 31.3507 24.5 30.6258 24.5C29.9009 24.5 29.3133 25.0876 29.3133 25.8125C29.3133 26.5374 29.9009 27.125 30.6258 27.125Z" fill="black"/>
<path d="M15.8333 36.5H4.81329C2.29831 36.5 0.250793 34.4541 0.250793 31.9375V10.0625C0.250793 7.54588 2.29831 5.5 4.81329 5.5H7.85329V7.625H4.81329C3.46947 7.625 2.37579 8.71868 2.37579 10.0625V31.9375C2.37579 33.2813 3.46947 34.375 4.81329 34.375H15.8333V36.5Z" fill="black" stroke="#F5F8FC" stroke-width="0.5"/>
<path d="M29.5008 15.22H27.3758V10.0625C27.3758 8.71868 26.2821 7.625 24.9383 7.625H21.9158V5.5H24.9383C27.4533 5.5 29.5008 7.54588 29.5008 10.0625V15.22Z" fill="black" stroke="#F5F8FC" stroke-width="0.5"/>
<path d="M10.2453 3.75H10.4343L10.4858 3.56821C11.0284 1.65501 12.7927 0.25 14.8758 0.25C16.9589 0.25 18.7232 1.65501 19.2658 3.56821L19.3173 3.75H19.5063H21.4383C22.0247 3.75 22.5008 4.22607 22.5008 4.8125V8.3125C22.5008 9.86318 21.239 11.125 19.6883 11.125H10.0633C8.51261 11.125 7.25079 9.86318 7.25079 8.3125V4.8125C7.25079 4.22607 7.72686 3.75 8.31329 3.75H10.2453ZM9.62579 5.875H9.37579V6.125V8.3125C9.37579 8.69207 9.68372 9 10.0633 9H19.6883C20.0679 9 20.3758 8.69207 20.3758 8.3125V6.125V5.875H20.1258H18.3758C17.7894 5.875 17.3133 5.39893 17.3133 4.8125C17.3133 3.46868 16.2196 2.375 14.8758 2.375C13.532 2.375 12.4383 3.46868 12.4383 4.8125C12.4383 5.39893 11.9622 5.875 11.3758 5.875H9.62579Z" fill="black" stroke="#F5F8FC" stroke-width="0.5"/>
<path d="M6.56329 14H23.1883V16.625H6.56329V14Z" fill="black"/>
<path d="M6.56329 19.25H19.1108V21.875H6.56329V19.25Z" fill="black"/>
<path d="M6.56329 24.5H16.0833V27.125H6.56329V24.5Z" fill="black"/>
</g>
<defs>
<clipPath id="clip0_230_6879">
<rect width="42" height="42" fill="white" transform="translate(0.000793457)"/>
</clipPath>
</defs>
</svg>
