<svg width="48" height="28" viewBox="0 0 48 28" fill="none" xmlns="http://www.w3.org/2000/svg">
<path d="M14.1591 20.6816H7.47728C6.86167 20.6816 6.36365 21.1797 6.36365 21.7953C6.36365 22.4109 6.86167 22.9089 7.47728 22.9089H14.1591C14.7747 22.9089 15.2727 22.4109 15.2727 21.7953C15.2727 21.1797 14.7747 20.6816 14.1591 20.6816Z" fill="black"/>
<path d="M17.8339 21.0157C17.6109 21.2157 17.5 21.505 17.5 21.7955C17.5 22.0848 17.6109 22.3741 17.8109 22.5741C18.0123 22.7971 18.3016 22.9091 18.6136 22.9091C18.903 22.9091 19.1923 22.7971 19.3923 22.5741C19.6152 22.3741 19.7273 22.0848 19.7273 21.7955C19.7273 21.505 19.6152 21.2157 19.3923 21.0157C18.9693 20.5928 18.2123 20.6144 17.8339 21.0157Z" fill="black"/>
<rect x="3.81818" y="2.54541" width="31.8182" height="22.9091" fill="#FDD4AD"/>
<path d="M4.13636 13.8499H3.98636V13.9999V20.8677C3.98636 23.3038 5.96875 25.2862 8.40493 25.2862H30.1575C31.0219 25.9705 31.9928 26.509 33.0491 26.8836C32.4193 27.0954 31.7477 27.2135 31.0485 27.2135H8.40493C4.90543 27.2135 2.05909 24.3672 2.05909 20.8677V7.13207C2.05909 3.63257 4.90543 0.78623 8.40493 0.78623H31.0485C34.548 0.78623 37.3955 3.6326 37.3955 7.13207V7.26091C37.3484 7.25473 37.3009 7.24826 37.2531 7.24173C36.9888 7.20571 36.7125 7.16805 36.4318 7.16805C36.1063 7.16805 35.785 7.18404 35.4682 7.21516V7.13207C35.4682 4.69584 33.4846 2.7135 31.0485 2.7135H8.40493C5.96875 2.7135 3.98636 4.69589 3.98636 7.13207V7.31805V7.46805H4.13636H34.021C32.5903 7.8303 31.2832 8.5037 30.1575 9.39532H4.13636H3.98636V9.54532V11.7726V11.9226H4.13636H27.8306C27.4563 12.5263 27.164 13.1782 26.9193 13.8499H4.13636Z" fill="black" stroke="#FDD4AD" stroke-width="0.3"/>
<circle cx="36.2727" cy="17.1814" r="8.27273" fill="#FEE2C9"/>
<path d="M26.6591 17.3406C26.6591 11.9519 31.0431 7.56787 36.4318 7.56787C41.8205 7.56787 46.2045 11.9519 46.2045 17.3406C46.2045 22.7293 41.8205 27.1133 36.4318 27.1133C31.0431 27.1133 26.6591 22.7293 26.6591 17.3406ZM28.3864 17.3406C28.3864 21.7766 31.9958 25.3861 36.4318 25.3861C40.8679 25.3861 44.4773 21.7766 44.4773 17.3406C44.4773 12.9046 40.8679 9.29514 36.4318 9.29514C31.9958 9.29514 28.3864 12.9046 28.3864 17.3406Z" fill="#0D0B1E" stroke="#FDD4AD" stroke-width="0.5"/>
<path d="M39.9585 16.2271H37.5464V13.8138C37.5464 13.1982 37.0484 12.7002 36.4327 12.7002C35.8171 12.7002 35.3191 13.1982 35.3191 13.8138V16.2271H32.907C32.2914 16.2271 31.7933 16.7251 31.7933 17.3407C31.7933 17.9563 32.2914 18.4544 32.907 18.4544H35.3191V20.8676C35.3191 21.4832 35.8171 21.9812 36.4327 21.9812C37.0484 21.9812 37.5464 21.4832 37.5464 20.8676V18.4544H39.9585C40.5741 18.4544 41.0722 17.9563 41.0722 17.3407C41.0722 16.7251 40.5741 16.2271 39.9585 16.2271Z" fill="#FA7E0A"/>
</svg>
