<svg width="13" height="13" viewBox="0 0 13 13" fill="none" xmlns="http://www.w3.org/2000/svg">
<path d="M2.49445 7.83022L1.73445 7.07021C1.42445 6.76021 1.42445 6.2502 1.73445 5.9402L2.49445 5.18019C2.62445 5.05019 2.72945 4.79519 2.72945 4.61519V3.54018C2.72945 3.10018 3.08945 2.74019 3.52945 2.74019H4.60445C4.78445 2.74019 5.03945 2.63521 5.16945 2.50521L5.92945 1.7452C6.23945 1.4352 6.74945 1.4352 7.05945 1.7452L7.81946 2.50521C7.94946 2.63521 8.20445 2.74019 8.38445 2.74019H9.45946C9.89946 2.74019 10.2594 3.10018 10.2594 3.54018V4.61519C10.2594 4.79519 10.3644 5.05019 10.4944 5.18019L11.2545 5.9402C11.5645 6.2502 11.5645 6.76021 11.2545 7.07021L10.4944 7.83022C10.3644 7.96022 10.2594 8.21522 10.2594 8.39522V9.47017C10.2594 9.91017 9.89946 10.2702 9.45946 10.2702H8.38445C8.20445 10.2702 7.94946 10.3752 7.81946 10.5052L7.05945 11.2652C6.74945 11.5752 6.23945 11.5752 5.92945 11.2652L5.16945 10.5052C5.03945 10.3752 4.78445 10.2702 4.60445 10.2702H3.52945C3.08945 10.2702 2.72945 9.91017 2.72945 9.47017V8.39522C2.72945 8.21022 2.62445 7.95522 2.49445 7.83022Z" stroke="#0D0B1E" stroke-width="0.5" stroke-linecap="round" stroke-linejoin="round"/>
<path d="M5 8L8 5" stroke="#0D0B1E" stroke-width="0.5" stroke-linecap="round" stroke-linejoin="round"/>
<path d="M7.74725 7.75H7.75174" stroke="#0D0B1E" stroke-width="0.5" stroke-linecap="round" stroke-linejoin="round"/>
<path d="M5.24725 5.25H5.25174" stroke="#0D0B1E" stroke-width="0.5" stroke-linecap="round" stroke-linejoin="round"/>
</svg>
