<svg width="19" height="19" viewBox="0 0 19 19" fill="none" xmlns="http://www.w3.org/2000/svg">
<path d="M7.50512 16.3795C7.10928 16.3795 6.8322 16.2449 6.66595 16.1183C6.34928 15.8887 5.85845 15.2949 6.1672 13.9649L6.61843 12.0174C6.65801 11.8512 6.57094 11.5504 6.45218 11.4237L4.87678 9.84828C4.04553 9.01703 4.11677 8.29661 4.2276 7.94036C4.33844 7.58411 4.7026 6.95869 5.85843 6.76077L7.8772 6.42828C8.02762 6.40453 8.27302 6.22245 8.33636 6.08787L9.45261 3.85536C9.99094 2.77869 10.7034 2.62036 11.0834 2.62036C11.4634 2.62036 12.1759 2.77869 12.7143 3.85536L13.8305 6.08787C13.9018 6.22245 14.1393 6.40453 14.2897 6.42828L16.3084 6.76077C17.4643 6.95077 17.8284 7.58411 17.9393 7.94036C18.0501 8.29661 18.1214 9.01703 17.2901 9.84828L15.7147 11.4237C15.5959 11.5424 15.5089 11.8512 15.5485 12.0174L15.9997 13.9649C16.3084 15.3029 15.8176 15.8887 15.5009 16.1183C15.1843 16.3479 14.4797 16.6408 13.2922 15.9362L11.4001 14.812C11.2418 14.717 10.9093 14.717 10.7509 14.812L8.85886 15.9362C8.31261 16.2687 7.85345 16.3795 7.50512 16.3795ZM11.0834 3.80786C10.9568 3.80786 10.7272 3.95827 10.5134 4.38577L9.39719 6.61828C9.15969 7.1012 8.59761 7.51287 8.06719 7.59995L6.04845 7.93245C5.5972 8.01162 5.39136 8.17787 5.35178 8.30453C5.3122 8.4312 5.38343 8.68453 5.70802 9.00912L7.28345 10.5845C7.6872 10.9883 7.90095 11.7245 7.77428 12.2787L7.32302 14.2262C7.18844 14.7883 7.27551 15.0891 7.3626 15.1604C7.44968 15.2237 7.76635 15.2158 8.25718 14.9149L10.1572 13.7908C10.6876 13.4741 11.4872 13.4741 12.0097 13.7908L13.9018 14.9149C14.4005 15.2079 14.7172 15.2237 14.8043 15.1604C14.8914 15.097 14.9784 14.7962 14.8439 14.2262L14.3926 12.2787C14.2659 11.7166 14.4718 10.9883 14.8834 10.5845L16.4589 9.00912C16.7834 8.68453 16.8547 8.42328 16.8151 8.30453C16.7755 8.18578 16.5697 8.01162 16.1184 7.93245L14.0997 7.59995C13.5693 7.51287 13.0072 7.1012 12.7697 6.61828L11.6534 4.38577C11.4397 3.95827 11.2101 3.80786 11.0834 3.80786Z" fill="#C66204"/>
<path d="M6.33325 4.552H1.58325C1.25867 4.552 0.989502 4.28284 0.989502 3.95825C0.989502 3.63367 1.25867 3.3645 1.58325 3.3645H6.33325C6.65784 3.3645 6.927 3.63367 6.927 3.95825C6.927 4.28284 6.65784 4.552 6.33325 4.552Z" fill="#C66204"/>
<path d="M3.95825 15.6355H1.58325C1.25867 15.6355 0.989502 15.3663 0.989502 15.0417C0.989502 14.7172 1.25867 14.448 1.58325 14.448H3.95825C4.28284 14.448 4.552 14.7172 4.552 15.0417C4.552 15.3663 4.28284 15.6355 3.95825 15.6355Z" fill="#C66204"/>
<path d="M2.37492 10.0938H1.58325C1.25867 10.0938 0.989502 9.82458 0.989502 9.5C0.989502 9.17542 1.25867 8.90625 1.58325 8.90625H2.37492C2.6995 8.90625 2.96867 9.17542 2.96867 9.5C2.96867 9.82458 2.6995 10.0938 2.37492 10.0938Z" fill="#C66204"/>
</svg>
